<?xml version="1.0" encoding="UTF-8" standalone="no"?>
<!DOCTYPE svg PUBLIC "-//W3C//DTD SVG 1.1//EN" "http://www.w3.org/Graphics/SVG/1.1/DTD/svg11.dtd">
<svg version="1.1" xmlns="http://www.w3.org/2000/svg" xmlns:xlink="http://www.w3.org/1999/xlink" preserveAspectRatio="xMidYMid meet" viewBox="-1.001621621621652 -0.9991891891892095 104.00000000000001 104.00000000000003" width="100" height="100"><defs><path d="M100 50C100 77.6 77.59 100 50 100C22.4 100 0 77.6 0 50C0 22.41 22.4 0 50 0C77.59 0 100 22.41 100 50Z" id="a2Hf2fJcHR"></path><linearGradient id="gradientbtl4QzrHG" gradientUnits="userSpaceOnUse" x1="50" y1="50" x2="49.41" y2="50"><stop style="stop-color: #080cab;stop-opacity: 1" offset="0%"></stop><stop style="stop-color: #f00011;stop-opacity: 1" offset="100%"></stop></linearGradient><path d="M90 50C90 72.08 72.07 90 50 90C27.92 90 10 72.08 10 50C10 27.92 27.92 10 50 10C72.07 10 90 27.92 90 50Z" id="aaXHcb9pB"></path><path d="M50 0L50 50" id="g2Vd2pX9MD"></path></defs><g><g><use xlink:href="#a2Hf2fJcHR" opacity="1" fill="url(#gradientbtl4QzrHG)"></use></g><g><use xlink:href="#aaXHcb9pB" opacity="1" fill="#ffffff" fill-opacity="1"></use></g><g><g><use xlink:href="#g2Vd2pX9MD" opacity="1" fill-opacity="0" stroke="#969696" stroke-width="2" stroke-opacity="1"></use></g></g></g></svg>